<svg width="321" height="150" viewBox="0 0 321 150" fill="none" xmlns="http://www.w3.org/2000/svg">
<g clip-path="url(#clip0_56_5124)">
<path d="M87.5873 56.9633C88.3556 57.7359 89.3346 58.2621 90.4004 58.4751C91.4661 58.6883 92.5708 58.5789 93.5748 58.1609C94.5788 57.7428 95.4369 57.0348 96.0406 56.1265C96.6442 55.218 96.9665 54.1501 96.9665 53.0575C96.9665 51.9652 96.6442 50.8971 96.0406 49.9887C95.4369 49.0804 94.5788 48.3724 93.5748 47.9542C92.5708 47.5362 91.4661 47.4268 90.4004 47.64C89.3346 47.8531 88.3556 48.3793 87.5873 49.1519C86.5569 50.1877 85.9781 51.5927 85.9781 53.0575C85.9781 54.5226 86.5569 55.9275 87.5873 56.9633Z" fill="#FF5678"/>
<path d="M66.1585 67.3943L32.1205 101.616C31.397 102.343 30.823 103.206 30.4314 104.157C30.0399 105.107 29.8382 106.125 29.8382 107.154C29.8382 108.183 30.0395 109.201 30.4309 110.151C30.8224 111.102 31.3963 111.966 32.1198 112.693C32.8431 113.42 33.7019 113.997 34.6472 114.391C35.5923 114.785 36.6054 114.987 37.6286 114.988C38.6518 114.988 39.6649 114.785 40.6102 114.391C41.5555 113.998 42.4144 113.421 43.1378 112.694L57.5244 98.2297C58.1058 97.7943 58.8233 97.5836 59.5464 97.6361C60.2694 97.6882 60.9494 98.0004 61.4628 98.5148C62.0359 99.0881 62.3609 99.8655 62.3671 100.678C62.3731 101.491 62.0597 102.274 61.4949 102.855L50.9638 113.443C49.5027 114.912 48.6821 116.904 48.6821 118.982C48.6824 121.059 49.5034 123.051 50.9644 124.52C52.4257 125.989 54.4074 126.814 56.4737 126.814C58.5401 126.814 60.5216 125.989 61.9827 124.519L91.3372 95.0057C91.6186 94.7227 91.9525 94.4985 92.3202 94.3454C92.6877 94.1922 93.0817 94.1135 93.4796 94.1135C93.8775 94.1135 94.2713 94.1922 94.6391 94.3454C95.0066 94.4985 95.3407 94.7227 95.622 95.0057C95.9033 95.2885 96.1264 95.6244 96.2787 95.9938C96.4311 96.3635 96.5093 96.7596 96.5093 97.1597C96.5093 97.5597 96.4311 97.9556 96.2787 98.3253C96.1264 98.6949 95.9033 99.0308 95.622 99.3136L93.8093 101.128C92.3482 102.597 91.5276 104.59 91.5278 106.667C91.5278 108.745 92.3489 110.737 93.8101 112.206C95.2712 113.674 97.2529 114.5 99.3194 114.499C101.386 114.499 103.367 113.674 104.828 112.205L117.14 99.827C118.601 98.3582 119.422 96.3658 119.422 94.2885C119.422 92.2111 118.602 90.2187 117.141 88.7497C115.68 87.2805 113.698 86.4552 111.632 86.455C109.565 86.455 107.584 87.2801 106.123 88.7489L104.336 90.5513C103.768 91.1225 102.997 91.4434 102.193 91.4434C101.389 91.4431 100.618 91.122 100.05 90.5505C99.4819 89.9791 99.163 89.2041 99.163 88.3961C99.1632 87.5879 99.4826 86.8131 100.051 86.2417L118.454 67.749C119.915 66.2801 120.736 64.2876 120.736 62.2103C120.735 60.1327 119.914 58.1405 118.453 56.6717C116.992 55.2028 115.01 54.3777 112.944 54.3779C110.878 54.3781 108.896 55.2034 107.435 56.6724L70.2089 94.0914C69.6304 94.6592 68.8524 94.9747 68.044 94.9689C67.2356 94.9632 66.4621 94.6367 65.8918 94.0604C65.3801 93.5436 65.0703 92.8591 65.0188 92.1317C64.9672 91.4044 65.1775 90.6824 65.6111 90.098L89.2898 66.295C90.7195 64.8194 91.5135 62.8373 91.5 60.7772C91.4866 58.7174 90.6668 56.7458 89.218 55.2892C87.7691 53.8326 85.8081 53.0084 83.7592 52.9949C81.7103 52.9812 79.7386 53.7796 78.271 55.2169L73.7913 59.7207C73.2155 60.0619 72.5433 60.2016 71.8802 60.1177C71.217 60.0341 70.6001 59.7318 70.1261 59.2582C69.5528 58.6849 69.2278 57.9075 69.2218 57.0947C69.2156 56.2818 69.5292 55.4995 70.0938 54.9178L87.7563 37.1591C89.1859 35.6835 89.9799 33.7011 89.9665 31.6413C89.953 29.5813 89.133 27.6096 87.6844 26.153C86.2355 24.6965 84.2743 23.8722 82.2257 23.8587C80.1768 23.8453 78.2051 24.6436 76.7374 26.0809L47.3766 55.5947C46.8082 56.166 46.0375 56.4869 45.2338 56.4867C44.4299 56.4865 43.6594 56.1654 43.091 55.594C42.5228 55.0224 42.2037 54.2474 42.2039 53.4395C42.2041 52.6315 42.5235 51.8565 43.0918 51.2853L51.3379 43.0009C52.0832 42.2787 52.6777 41.4145 53.0869 40.4585C53.4961 39.5027 53.7118 38.4744 53.7212 37.4337C53.7308 36.3932 53.5338 35.3611 53.1421 34.3978C52.7504 33.4345 52.1718 32.5594 51.4398 31.8235C50.7079 31.0877 49.8375 30.5058 48.8794 30.112C47.9212 29.7182 46.8947 29.5203 45.8595 29.5299C44.8246 29.5393 43.8018 29.7562 42.851 30.1676C41.9003 30.579 41.0406 31.1766 40.3223 31.926L21.5816 50.7657C20.1205 52.2345 19.2995 54.2269 19.2993 56.3042C19.2993 57.3327 19.5006 58.3514 19.8921 59.3018C20.2836 60.2521 20.8575 61.1157 21.581 61.843C22.3042 62.5705 23.1631 63.1474 24.1084 63.541C25.0535 63.9349 26.0666 64.1375 27.0898 64.1377C29.156 64.1377 31.1377 63.3126 32.599 61.8438L34.3826 60.0506C34.9508 59.4792 35.7215 59.1581 36.5252 59.1579C37.3289 59.1577 38.0999 59.4785 38.6682 60.0499C39.2366 60.6211 39.556 61.3961 39.5562 62.2041C39.5562 63.012 39.2371 63.7871 38.6689 64.3584L20.2658 82.8514C18.8362 84.327 18.0421 86.3093 18.0556 88.3691C18.0691 90.429 18.8888 92.4006 20.3377 93.8572C21.7865 95.3138 23.7475 96.138 25.7964 96.1517C27.8453 96.1652 29.817 95.3668 31.2847 93.9295L61.3783 63.6786C61.957 63.1109 62.735 62.7958 63.5436 62.8018C64.352 62.808 65.1253 63.1346 65.6954 63.7109C66.1667 64.1871 66.4679 64.8068 66.5515 65.4734C66.6354 66.1397 66.4972 66.8153 66.1585 67.3943Z" fill="#FF5678"/>
</g>
<path d="M178.887 51.8709L160.672 52.8517L156.889 62.3094L151.705 61.6088L153.316 47.8076H188.835L190.517 51.5206L165.156 90.8926L160.322 95.7265L181.9 94.3254L185.823 83.4666L191.147 84.5174L189.536 100H151.005L148.833 96.287L174.754 56.7048L178.887 51.8709ZM214.005 100.771C207.84 100.771 203.24 98.9725 200.204 95.3762C197.215 91.7333 195.72 86.7826 195.72 80.5242C195.72 76.3208 196.491 72.6778 198.032 69.5953C199.62 66.5128 201.838 64.1542 204.687 62.5195C207.536 60.8849 210.829 60.0675 214.565 60.0675C219.236 60.0675 222.832 61.3052 225.354 63.7806C227.876 66.2092 229.184 69.6887 229.277 74.219C229.277 77.3016 229.091 79.5901 228.717 81.0846H205.948C206.135 85.3347 207.139 88.6508 208.961 91.0327C210.782 93.3679 213.374 94.5356 216.737 94.5356C218.559 94.5356 220.427 94.232 222.342 93.6248C224.303 93.0177 225.845 92.2937 226.965 91.4531L228.717 95.3062C227.456 96.6606 225.401 97.9216 222.552 99.0893C219.75 100.21 216.901 100.771 214.005 100.771ZM219.469 76.8812C219.563 75.5735 219.61 74.5693 219.61 73.8688C219.61 67.657 217.531 64.5512 213.374 64.5512C211.086 64.5512 209.311 65.4619 208.05 67.2834C206.789 69.1049 206.089 72.3042 205.948 76.8812H219.469ZM249.51 100.771C246.614 100.771 244.022 100.093 241.734 98.739C239.445 97.3378 237.624 95.1894 236.269 92.2937C234.915 89.398 234.238 85.7784 234.238 81.4349C234.238 77.5117 235.032 73.9388 236.62 70.7162C238.254 67.4469 240.636 64.8548 243.765 62.9399C246.895 61.025 250.654 60.0675 255.045 60.0675C256.819 60.0675 258.501 60.2544 260.089 60.628V48.7884L253.223 47.8076V43.9544L267.655 42.5533H267.865L269.827 44.0245V95.7265H273.61V99.7198C270.247 100.42 267.468 100.771 265.273 100.771C263.778 100.771 262.704 100.514 262.05 100C261.443 99.533 261.14 98.5755 261.14 97.1277V95.1661C259.925 96.8007 258.267 98.1552 256.166 99.2294C254.064 100.257 251.845 100.771 249.51 100.771ZM253.153 94.9559C254.694 94.9559 256.049 94.6523 257.216 94.0452C258.431 93.3913 259.388 92.6207 260.089 91.7333V66.2326C259.762 65.7655 259.061 65.3685 257.987 65.0416C256.96 64.7147 255.839 64.5512 254.624 64.5512C251.635 64.5512 249.23 65.8589 247.408 68.4744C245.634 71.0431 244.746 75.1765 244.746 80.8745C244.746 85.6383 245.517 89.1879 247.058 91.5231C248.599 93.8116 250.631 94.9559 253.153 94.9559ZM293.364 100.771C290.468 100.771 287.876 100.093 285.588 98.739C283.299 97.3378 281.478 95.1894 280.123 92.2937C278.769 89.398 278.092 85.7784 278.092 81.4349C278.092 77.5117 278.886 73.9388 280.474 70.7162C282.108 67.4469 284.49 64.8548 287.619 62.9399C290.749 61.025 294.508 60.0675 298.899 60.0675C300.673 60.0675 302.355 60.2544 303.943 60.628V48.7884L297.077 47.8076V43.9544L311.509 42.5533H311.719L313.681 44.0245V95.7265H317.464V99.7198C314.101 100.42 311.322 100.771 309.127 100.771C307.632 100.771 306.558 100.514 305.904 100C305.297 99.533 304.994 98.5755 304.994 97.1277V95.1661C303.779 96.8007 302.121 98.1552 300.02 99.2294C297.918 100.257 295.699 100.771 293.364 100.771ZM297.007 94.9559C298.548 94.9559 299.903 94.6523 301.07 94.0452C302.285 93.3913 303.242 92.6207 303.943 91.7333V66.2326C303.616 65.7655 302.915 65.3685 301.841 65.0416C300.814 64.7147 299.693 64.5512 298.478 64.5512C295.489 64.5512 293.084 65.8589 291.262 68.4744C289.488 71.0431 288.6 75.1765 288.6 80.8745C288.6 85.6383 289.371 89.1879 290.912 91.5231C292.453 93.8116 294.485 94.9559 297.007 94.9559Z" fill="#FF5678"/>
<defs>
<clipPath id="clip0_56_5124">
<rect width="137.283" height="149.352" fill="white" transform="translate(-7.62939e-06 0.323853)"/>
</clipPath>
</defs>
</svg>
